<svg xmlns="http://www.w3.org/2000/svg" xmlns:xlink="http://www.w3.org/1999/xlink" t="1766651002949" class="icon" viewBox="0 0 1024 1024" version="1.1" p-id="52069" width="200" height="200"><path d="M149.333333 938.666667a21.333333 21.333333 0 0 1-21.333333-21.333334v-222.226666A341.233333 341.233333 0 0 1 384 128h256a341.333333 341.333333 0 1 1 0 682.666667H384a342.193333 342.193333 0 0 1-86.706667-11.12l-132.873333 132.873333A21.333333 21.333333 0 0 1 149.333333 938.666667zM384 170.666667c-164.666667 0-298.666667 134-298.666667 298.666666a297.693333 297.693333 0 0 0 79.64 203.046667 21.333333 21.333333 0 0 1 5.693334 14.506667v178.946666l105.333333-105.333333a21.333333 21.333333 0 0 1 21.266667-5.333333A298.86 298.86 0 0 0 384 768h256c164.666667 0 298.666667-134 298.666667-298.666667s-134-298.666667-298.666667-298.666666z" fill="#5C5C66" p-id="52070"/></svg>