<svg xmlns="http://www.w3.org/2000/svg" xmlns:xlink="http://www.w3.org/1999/xlink" t="1766662706900" class="icon" viewBox="0 0 1024 1024" version="1.1" p-id="80004" width="200" height="200"><path d="M510.848 439.488L960 564.8 891.2 832l-449.28-125.312-11.84-60.608 61.632-25.728-30.72-94.464 55.808-56.128-5.952-30.272z m-145.024-4.16l17.408 25.152-28.864 74.88 65.088 73.152-46.208 49.728 34.688 50.24-301.824 50.368L64 485.76l301.824-50.368z m222.912-124.48l25.6 26.048-57.92 61.888-25.664-26.048 57.984-61.888z m-294.848-23.168l59.52 60.352-25.088 26.752-59.52-60.352 25.088-26.752zM460.16 192v135.552h-35.84V192h35.84z" fill="#1890FF" p-id="80005"/></svg>