<svg xmlns="http://www.w3.org/2000/svg" xmlns:xlink="http://www.w3.org/1999/xlink" t="1766649443815" class="icon" viewBox="0 0 1024 1024" version="1.1" p-id="28063" width="200" height="200"><path d="M646.4 224v592H220.8V224c0-19.2 16-32 35.2-32h358.4c16 0 32 16 32 32zM300.8 406.4h102.4v-96H300.8v96z m163.2 0h102.4v-96h-102.4v96z m-163.2 176h102.4v-96H300.8v96z m163.2 0h102.4v-96h-102.4v96z m204.8 233.6v-320c0-19.2 16-32 35.2-32h54.4c19.2 0 35.2 16 35.2 32v320h-124.8z" fill="#0E7EB7" p-id="28064"/><path d="M192 816c-16 0-32-12.8-32-28.8s12.8-28.8 32-28.8h627.2c16 0 32 12.8 32 28.8s-12.8 28.8-32 28.8H192z" fill="#0E7EB7" p-id="28065"/></svg>