<svg xmlns="http://www.w3.org/2000/svg" xmlns:xlink="http://www.w3.org/1999/xlink" t="1766469437170" class="icon" viewBox="0 0 1024 1024" version="1.1" p-id="7623" width="200" height="200"><path d="M692.6 509.8c7.9 0 14.6 7.3 13.8 16-11 121.8-146 218-310.9 218s-299.9-96.2-310.9-218c-0.8-8.7 5.9-16 13.8-16h594.2z" fill="#FFFFFF" p-id="7624"/><path d="M395.5 760.5c-171.8 0-315.7-102.4-327.4-233.1-0.8-8.8 2.1-17.6 8.1-24.1 5.8-6.3 13.9-10 22.2-10h594.2c8.3 0 16.4 3.6 22.2 9.9 6 6.5 8.9 15.3 8.1 24.1-11.8 130.8-155.6 233.2-327.4 233.2zM100.8 526.4C112 638.6 241.1 727.3 395.5 727.3c153.9 0 282.6-88 294.2-200.9H100.8z" p-id="7625"/><path d="M173 525.9c9.7 107.8 138.8 195.5 277.7 214.2 138.9-18.7 245.9-106.4 255.6-214.2 0.8-8.7-5.9-16-13.8-16H186.9c-8-0.1-14.6 7.3-13.9 16z" fill="#C1C1C1" p-id="7626"/><path d="M924.4 590.1H711.6c-6 0-10.9-4.9-10.9-10.9v-69.3h223.7c6 0 10.9 4.9 10.9 10.9v58.4c0.1 6-4.8 10.9-10.9 10.9z" fill="#FFFFFF" p-id="7627"/><path d="M924.4 606.7H711.6c-15.2 0-27.5-12.4-27.5-27.5v-85.9h240.3c15.2 0 27.5 12.4 27.5 27.5v58.4c0 15.2-12.3 27.5-27.5 27.5z m-207.1-33.2h201.5v-47.1H717.3v47.1z" p-id="7628"/><path d="M924.4 542.2H700.7v33.4c0 8 4.9 14.6 10.9 14.6h212.8c6.1 0 11-6.5 11-14.6v-18.8c0-8.1-4.9-14.6-11-14.6z m-718-58.2l-30.7-30.7c-7.2-7.2-7.2-19 0-26.2l30.7-30.7c7.2-7.2 19-7.2 26.2 0l30.7 30.7c7.2 7.2 7.2 19 0 26.2L232.6 484c-7.2 7.3-19 7.3-26.2 0z m128.2-56.4l-25.4-18.3c-6-4.3-7.3-12.7-3-18.7l18.3-25.4c4.3-6 12.7-7.3 18.7-3l25.4 18.3c6 4.3 7.3 12.7 3 18.7l-18.3 25.4c-4.3 6-12.7 7.4-18.7 3zM400.8 432.1a39.4 39.4 0 1 0 78.8 0 39.4 39.4 0 1 0-78.8 0zM577.6 480.5l-39.2-23.9c-9.4-5.7-9.1-19.5 0.6-24.7l40.3-22c9.6-5.3 21.4 1.9 21.1 12.9l-1.1 45.9c-0.3 10.9-12.3 17.5-21.7 11.8z" fill="#C1C1C1" p-id="7629"/><path d="M395.5 760.5c-171.8 0-315.7-102.4-327.4-233.1-0.8-8.8 2.1-17.6 8.1-24.1 5.8-6.3 13.9-10 22.2-10h594.2c8.3 0 16.4 3.6 22.2 9.9 6 6.5 8.9 15.3 8.1 24.1-11.8 130.8-155.6 233.2-327.4 233.2zM100.8 526.4C112 638.6 241.1 727.3 395.5 727.3c153.9 0 282.6-88 294.2-200.9H100.8z" fill="#9D9D9D" p-id="7630"/><path d="M510.2 667.9c-5.3 0-9.9-3.8-10.9-9.2-1.1-6 3-11.7 9-12.8 46.7-8.1 63.3-39.2 63.9-40.5 2.8-5.4 9.4-7.6 14.9-4.8 5.4 2.7 7.6 9.3 4.9 14.8-0.9 1.7-21.7 42.2-79.9 52.3-0.6 0.2-1.2 0.2-1.9 0.2z m414.2-61.2H711.6c-15.2 0-27.5-12.4-27.5-27.5v-85.9h240.3c15.2 0 27.5 12.4 27.5 27.5v58.4c0 15.2-12.3 27.5-27.5 27.5z m-207.1-33.2h201.5v-47.1H717.3v47.1z m-422.4-214c-0.8 0-1.7-0.2-2.4-0.6-16.7-8.2-26.5-19.5-29.2-33.7-5.3-27.7 19.4-55.5 20.4-56.6 2.1-2.2 5.5-2.4 7.8-0.4 2.3 2.1 2.5 5.5 0.4 7.8-0.2 0.3-22.1 24.9-17.8 47.2 2 10.5 9.8 19.2 23.2 25.8 2.7 1.4 3.9 4.7 2.5 7.4-0.9 1.9-2.9 3.1-4.9 3.1z m88.4 0c-0.8 0-1.7-0.2-2.4-0.6-16.7-8.2-26.5-19.5-29.2-33.7-5.3-27.7 19.4-55.5 20.4-56.6 2.1-2.2 5.5-2.4 7.8-0.4 2.3 2.1 2.5 5.5 0.4 7.8-0.2 0.3-22.1 24.9-17.8 47.2 2 10.5 9.8 19.2 23.2 25.8 2.7 1.4 3.9 4.7 2.5 7.4-0.9 1.9-2.9 3.1-4.9 3.1z m88.5 0c-0.8 0-1.7-0.2-2.4-0.6-16.7-8.2-26.5-19.5-29.2-33.7-5.3-27.7 19.4-55.5 20.4-56.6 2.1-2.2 5.5-2.4 7.8-0.4 2.3 2.1 2.5 5.5 0.4 7.8-0.2 0.3-22.1 24.9-17.8 47.2 2 10.5 9.8 19.2 23.2 25.8 2.7 1.4 3.9 4.7 2.5 7.4-0.9 1.9-2.9 3.1-4.9 3.1z" fill="#9D9D9D" p-id="7631"/></svg>