<svg xmlns="http://www.w3.org/2000/svg" xmlns:xlink="http://www.w3.org/1999/xlink" t="1766564938966" class="icon" viewBox="0 0 1024 1024" version="1.1" p-id="32900" width="200" height="200"><path d="M371.626667 592.213333l-49.066667 61.44a128 128 0 1 1-35.413333-23.893333l50.346666-63.573333a192 192 0 0 1-19.2-256l-42.666666-42.666667a85.333333 85.333333 0 0 1-42.666667 11.52 85.333333 85.333333 0 1 1 85.333333-85.333333 85.333333 85.333333 0 0 1-12.8 42.666666l39.68 42.666667A192.426667 192.426667 0 0 1 469.333333 234.666667 190.293333 190.293333 0 0 1 612.693333 298.666667l27.306667-24.32a106.666667 106.666667 0 1 1 85.333333 45.653333 104.96 104.96 0 0 1-56.32-16.213333l-29.013333 30.293333a194.986667 194.986667 0 0 1 21.333333 92.586667 190.72 190.72 0 0 1-42.666666 119.893333l82.773333 85.333333A148.053333 148.053333 0 0 1 768 618.666667a149.76 149.76 0 1 1-101.546667 40.106666l-77.653333-81.92a192.426667 192.426667 0 0 1-217.173333 15.36zM768 874.666667a106.666667 106.666667 0 1 0-106.666667-106.666667 106.666667 106.666667 0 0 0 106.666667 106.666667zM234.666667 234.666667a42.666667 42.666667 0 1 0-42.666667-42.666667 42.666667 42.666667 0 0 0 42.666667 42.666667z m490.666666 42.666666A64 64 0 1 0 661.333333 213.333333 64 64 0 0 0 725.333333 277.333333z m-490.666666 554.666667a85.333333 85.333333 0 1 0-85.333334-85.333333 85.333333 85.333333 0 0 0 85.333334 85.333333z m234.666666-256A149.333333 149.333333 0 1 0 320 426.666667a149.333333 149.333333 0 0 0 149.333333 149.333333z" fill="#636161" p-id="32901"/></svg>