<svg xmlns="http://www.w3.org/2000/svg" xmlns:xlink="http://www.w3.org/1999/xlink" t="1765966092820" class="icon" viewBox="0 0 1024 1024" version="1.1" p-id="23818" width="200" height="200"><path d="M439.637333 86.072889a104.248889 104.248889 0 0 1 141.937778 12.629333l3.299556 3.868445 1.024 1.336889c14.336 18.346667 22.186667 40.96 22.186666 64.227555V857.884444a104.362667 104.362667 0 0 1-58.595555 93.696 104.305778 104.305778 0 0 1-109.852445-11.605333l-230.968889-180.736H115.825778a74.24 74.24 0 0 1-51.996445-21.304889 74.24 74.24 0 0 1-20.707555-38.656h-1.479111V337.009778a74.24 74.24 0 0 1 74.24-74.24h97.934222l225.848889-176.696889z m62.606223 66.389333a15.758222 15.758222 0 0 0-6.200889 2.048l-1.848889 1.223111-237.795556 186.026667a44.088889 44.088889 0 0 1-27.249778 9.472H130.076444V670.72h93.952c9.870222 0 19.456 3.328 27.221334 9.415111l242.944 190.151111a15.815111 15.815111 0 0 0 25.486222-12.458666V168.163556a15.815111 15.815111 0 0 0-17.436444-15.701334z m192.284444 477.44a44.259556 44.259556 0 0 1 32.568889 9.187556l1.450667 1.137778 184.405333 141.653333 0.568889 0.426667 0.142222 0.113777 0.170667 0.142223a44.259556 44.259556 0 0 1 6.826666 61.582222 44.259556 44.259556 0 0 1-61.496889 7.907555l-0.056888-0.056889-186.026667-142.876444v-0.028444l-0.682667-0.512a44.430222 44.430222 0 0 1-15.217778-46.734223 44.231111 44.231111 0 0 1 19.399112-25.685333l-0.199112-0.142222h0.483556c0.426667-0.256 0.824889-0.540444 1.251556-0.768 5.063111-2.844444 10.638222-4.636444 16.412444-5.347556z m61.781333-194.218666c10.922667 0.483556 21.276444 5.12 28.899556 12.913777l41.016889 41.756445 44.259555-32.426667a46.193778 46.193778 0 0 1 58.168889 2.986667l3.015111 2.986666 0.455111 0.455112 0.369778 0.512 0.369778 0.483555a42.296889 42.296889 0 0 1 9.756444 31.914667 42.382222 42.382222 0 0 1-17.152 29.582222l-73.756444 53.674667-0.142222 0.142222-0.142222 0.142222a42.894222 42.894222 0 0 1-58.055112-1.678222l-0.199111-0.170667-41.557333-42.24-32.853333 24.376889-11.093334 8.192-8.533333-10.808889-44.771556-56.604444 11.377778-8.789334 60.074667-46.421333 0.170667-0.142222 0.142222-0.170667 0.199111-0.142222c8.277333-7.224889 19.000889-10.979556 29.980444-10.524444z m135.224889-271.815112c6.286222 0.739556 12.288 2.872889 17.607111 6.115556h0.512l-0.284444 0.142222a44.316444 44.316444 0 0 1 4.266667 72.419556l-0.113778 0.113778-0.568889 0.426666-186.026667 142.848-0.056889 0.056889a44.288 44.288 0 0 1-61.468444-7.907555 44.259556 44.259556 0 0 1 6.798222-61.582223l0.170667-0.142222 0.682666-0.568889 185.856-142.762666 3.584-2.531556a44.259556 44.259556 0 0 1 29.013334-6.627556z" fill="#000000" p-id="23819"/></svg>