<svg xmlns="http://www.w3.org/2000/svg" xmlns:xlink="http://www.w3.org/1999/xlink" t="1765969144764" class="icon" viewBox="0 0 1433 1024" version="1.1" p-id="48169" width="279.8828125" height="200"><path d="M624.237 163.201c-20.764 93.265 34.699 186.506 123.979 208.223 89.238 21.73 178.405-36.276 199.196-129.574 20.804-93.276-34.715-186.498-123.958-208.237C734.224 11.858 645.018 69.911 624.24 163.2z m202.691 340.531c18.986 0 38.899-1.318 59.385-3.735l-8.96-22.576c-13.087-32.857-42.271-55.55-76.134-59.195-33.788-3.639-66.814 12.356-85.981 41.772l-14.395 22.039c36.87 14.307 79.012 21.578 126.095 21.69z" fill="" p-id="48170"/><path d="M503.101 996.54c28.287-0.336 49.993-1.952 65.228-11.52 18.944-6.291 36.129-18.897 48.221-37.441h-0.033l152.395-233.403 86.471 217.379c14.746 37.035 49.01 59.403 85.15 59.403 11.801 0 23.798-2.383 35.369-7.44 46.992-20.414 69.276-76.82 49.717-125.97l-83.145-209.034c-41.132 7.196-81.118 10.915-118.826 10.915h-1.029c-90.289 0-159.824-20.969-210.971-46.348l-2.615 4.026c0.286-1.618 0.58-3.243 0.853-4.885-23.255-11.646-42.599-24.167-58.346-36-56.122-41.986-81.53-85.374-86.067-93.638-9.901-18.365-12.422-39.574-7.068-59.821 5.365-20.211 17.972-37.087 35.466-47.406 11.287-6.711 24.082-10.23 36.972-10.23 26.698 0 51.614 14.934 65.059 39.038l0.687 1.019c1.012 1.555 3.306 4.91 6.837 9.269 6.653 8.29 18.314 20.886 35.619 33.808 0.348 0.286 0.727 0.458 1.098 0.707 5.428-66.991-22.596-134.845-75.821-148.705-62.991-16.39-154.238 19.329-191.371 132.221-50.191 155.569-60.983 256.784-41.887 428.055 23.035 124.154 104.437 136.877 172.033 135.986z" fill="" p-id="48171"/><path d="M925.113 511.578c-36.335 6.521-68.989 9.217-98.215 9.217-97.921-0.226-157.782-29.794-195.027-57.252-18.494-13.853-31.125-27.405-38.799-36.926-3.818-4.711-6.434-8.476-7.849-10.647a37.96 37.96 0 0 1-1.249-1.95c-0.025-0.069-0.025-0.11-0.039-0.151h-0.042c-16.313-29.26-52.144-39.46-80.423-22.717-28.498 16.898-38.553 54.702-22.393 84.485h-0.007c3.065 5.605 26.673 47.463 81.903 88.735 54.833 41.258 141.709 80.447 262.934 80.447h1.012c36.284 0 75.641-3.447 118.182-11.006 32.254-5.741 53.974-37.755 48.475-71.506-5.494-33.764-36.143-56.49-68.447-50.722z" fill="" p-id="48172"/></svg>