<svg xmlns="http://www.w3.org/2000/svg" xmlns:xlink="http://www.w3.org/1999/xlink" t="1766132009811" class="icon" viewBox="0 0 1024 1024" version="1.1" p-id="17591" width="200" height="200"><path d="M873.5 369.9c-11.1-11.4-22.6-16.7-29.6-19-1.9-9.2-6.6-27.7-17.4-46.9-19.2-34.4-48.8-55.1-85.8-60.3-2.9-5.1-8.7-12.8-19.8-20.6-22-15.5-54.6-24.6-97-27.2-10.7-6.5-57.3-31-118.3-6.9-7.7-2.3-27.5-7.5-52-7.7-39.7-0.3-73.3 12.8-97.5 38.1-6.6-0.6-19.1-1.1-33.6 1.4-26.7 4.7-48 17.8-61.9 38-8.2 1.1-26.1 4.7-45.3 16-23.3 13.6-53 41.4-63.2 96.8-13.2 15.6-24.6 42.3-29.9 70.5-4.8 25.2-7 63 9.4 99.5 12.4 27.6 33.2 49.3 61.9 64.3 31.2 16.4 71.7 24.7 120.5 24.7 3.6 8 11.3 22.5 25.5 36.8 18.6 18.7 52.4 40.8 108 40.8h5.6c38.8 0 68.1 20.9 87 62.3 14.9 32.7 17.5 66.4 17.5 66.7 0.3 4.7 4.3 8.4 9 8.4h111.5c2.6 0 5.1-1.1 6.8-3.1 1.7-2 2.5-4.6 2.1-7.2l-9.2-66.2c13.4-0.2 37-2.4 61.8-13.1 22-9.5 40.3-23.8 54.3-42.3 16.5-21.7 27.1-49.3 31.6-82.1 7.9-3 22.1-10.2 36.3-25.6 27-29.2 41.4-73.1 42.9-130.5 1.5-47.5-9.1-82.9-31.2-105.6z m13.4 104.9c-1.4 51.5-14.2 92.2-37.3 117.8-9.1 10.2-18.2 16.1-24.7 19.4-8-52.8-28.1-91.6-59.7-115.4-32.8-24.7-68.6-25.9-84.5-25-1.5-5-3.3-9.8-5.4-14.3 22.1-17 28.9-36.6 30.5-50.6 2-16.7-2.8-29.3-3-29.8-1.8-4.6-7-6.9-11.7-5.1-4.6 1.8-6.9 7-5.1 11.6 0.5 1.4 11.8 32.7-20.3 58.5-12.2-15.4-29.9-25.8-52.5-30.6-13.3-2.8-26-3.1-35.7-2.7 10.1-28.8-1.8-62.2-2.4-63.9-1.7-4.7-6.9-7.1-11.5-5.4-4.7 1.7-7.1 6.9-5.4 11.5 0 0.1 3.7 10.2 4.9 23.4 1.1 11.5 0.5 27.5-8.3 39.1-0.2 0.3-0.5 0.6-0.7 0.9-11 13.5-32.3 18.7-63.2 15.3-4.9-0.5-9.4 3-9.9 8s3 9.4 8 9.9c6.7 0.7 13 1.1 19 1.1 26.2 0 45.8-7 58.3-20.9 7-0.9 24.9-2.6 43.6 1.4 30.3 6.5 48.8 24.7 55 54.1 1 4.7 5.5 7.8 10.3 7 0.4-0.1 42.7-6.6 79.3 21 29.4 22.2 47.5 60.3 53.8 113-6.7 57.2-32 95.9-75.2 114.9-32.9 14.4-64.5 11.7-64.8 11.7-2.7-0.3-5.5 0.7-7.4 2.7s-2.8 4.7-2.4 7.5l9.3 66.5h-93.1c-1.7-12.8-6.3-38.4-18-64.1-22.1-48.7-58.7-74.1-105.8-73.2-40.9 0.7-73.9-11-97.9-34.9-16.7-16.5-23.2-33.5-24.1-36.1v-0.2c-10.1-36.6-0.6-68 28.2-93.6 22.4-19.8 48.6-28.6 48.9-28.7 4.7-1.5 7.3-6.6 5.8-11.3-1.5-4.7-6.6-7.3-11.3-5.8-1.2 0.4-29.5 9.8-54.8 31.9-31.3 27.5-43.9 62.2-36.7 100.9-43.5-0.6-79.4-8.2-106.9-22.6-25-13.1-43.1-31.8-53.8-55.7-14.5-32.3-12.4-66.1-8.1-88.8 3.3-17.7 9.4-34.9 16.5-48.1 8.1 26.5 21.9 45 41.2 55.2 15.1 8 31.2 9.5 45 8.5-11.3 15-21.6 39.3-9.4 71.8 1.4 3.6 4.8 5.8 8.4 5.8 1 0 2.1-0.2 3.2-0.6 4.7-1.7 7-6.9 5.3-11.6-18.3-48.8 27.7-73.5 29.6-74.5 4.3-2.2 6.1-7.5 4-11.9-2.1-4.4-7.4-6.3-11.8-4.3-0.4 0.2-36.8 16.2-66 0.8-18.4-9.7-30.6-30.3-36.3-61 7.1-39.2 25.2-67.7 54-84.8 22-13.1 42.4-14.4 42.6-14.4 3-0.2 5.6-1.7 7.2-4.3 11.1-17.9 28.4-29.2 51.6-33.4 6.2-1.1 12-1.6 17-1.7-8.9 13.7-19.8 36.3-19.2 64.4 0.1 4.9 4.1 8.8 9 8.8h0.2c5-0.1 8.9-4.2 8.8-9.2-0.8-38.3 24.8-65.4 25.2-65.8l0.2-0.2 0.1-0.1c20.9-23.6 49.8-35.5 85.9-35.5h0.7c27.9 0.1 49.8 7.7 50 7.7 2.1 0.7 4.4 0.7 6.5-0.2 25.3-10.6 50.9-13 76-7 1.2 0.3 2.3 0.6 3.4 0.9-0.3 0.1-0.5 0.2-0.8 0.3-23.6 8.2-39 25-44.5 48.4-1.1 4.8 1.9 9.7 6.7 10.8 0.7 0.2 1.4 0.2 2.1 0.2 4.1 0 7.8-2.8 8.8-7 9.7-41.6 57.4-39.9 59.5-39.8h0.1c89.5 4.8 104.8 39.1 105.6 41.1 1 3.6 4 5.8 7.7 6.2 33.5 3.4 59.3 20.6 76.6 51.3 13.4 23.6 16.5 46.7 16.5 47 0.5 4 3.6 7.2 7.6 7.8 0.4 0.3 54.6 9.3 51.9 108z" fill="#2C2E4C" p-id="17592"/></svg>