<svg xmlns="http://www.w3.org/2000/svg" xmlns:xlink="http://www.w3.org/1999/xlink" t="1766654571737" class="icon" viewBox="0 0 1024 1024" version="1.1" p-id="58039" width="200" height="200"><path d="M670.0032 89.6l4.0064 0.0384c104.0512 2.112 188.032 86.1056 192.2176 190.72l0.1408 5.3376 1.7536 1.3184C931.8144 335.2832 972.8 427.1104 972.8 521.088l-0.0512 5.632c-1.152 69.6448-23.808 145.8816-59.4176 194.176l-1.3056 1.728 0.0256 2.4064C912.0512 847.6032 814.0416 947.2 692.8384 947.2c-75.136 0-141.3504-38.272-180.8384-96.5376C472.512 908.928 406.2976 947.2 331.1616 947.2c-121.216 0-219.2128-99.5968-219.2128-222.1568l0.0256-2.4064-1.3056-1.7408c-35.6224-48.2816-58.2528-124.5184-59.4176-194.176L51.2 521.088c0-93.9776 40.9856-185.8048 104.6784-234.0736l1.7536-1.3184 0.0128-1.1904c2.112-106.5344 86.9248-192.7296 192.3456-194.8672L353.9968 89.6c64.8448 0 122.2656 31.808 158.016 80.7936C547.7248 121.408 605.1584 89.6 670.0032 89.6z m-316.0064 76.8c-65.9072 0-119.5904 54.5536-119.5904 122.1632 0 2.9952 0.1024 5.9648 0.32 8.9216l0.384 4.4288c0.128 1.1008 0.192 2.2016 0.2048 3.2896l-0.3968-2.7776 0.512 3.6864a95.488 95.488 0 0 0 25.28 51.8016c9.664 10.2016 20.928 17.408 27.136 19.4176l1.2416 0.3584a38.4 38.4 0 1 1-17.344 74.816c-35.456-8.2176-72.192-38.0928-94.1696-80.1664-29.824 36.608-49.5744 91.904-49.5744 148.7616 0 32.5376 6.336 67.6736 16.6912 98.2016 8.9856-14.4768 19.3536-26.944 30.6048-35.968a38.4 38.4 0 0 1 49.92 58.3168l-1.856 1.5744c-13.184 10.5856-28.4032 41.4208-34.1248 69.76l0.0128-0.256c-0.3328 4.0704-0.512 8.192-0.512 12.3136C188.7488 805.4528 252.6592 870.4 331.1744 870.4 409.6896 870.4 473.6 805.4528 473.6 725.0432L473.6 593.664c-25.4336 21.0048-56.4736 35.712-92.0064 39.7312a38.4 38.4 0 0 1-10.8928-75.9936l2.2272-0.32c55.872-6.336 97.216-67.072 100.6848-116.7488l-0.0256-151.7824C473.6 220.9536 419.904 166.4 353.9968 166.4z m316.0064 0C604.0832 166.4 550.4 220.9536 550.4 288.5632l-0.0256 151.7824c3.4048 48.6912 43.1744 107.9936 97.344 116.3136l3.328 0.4352a38.4 38.4 0 0 1-8.6528 76.3136c-35.5328-4.032-66.56-18.7264-92.0064-39.7312v131.3664C550.4 805.4528 614.3232 870.4 692.8512 870.4c78.5152 0 142.4128-64.9472 142.4128-145.3568 0-4.0448-0.1536-8.064-0.4736-12.0576-5.504-27.1616-19.712-56.6144-32.4864-68.3264l-1.664-1.4336a38.4 38.4 0 1 1 48.0768-59.904c11.264 9.0368 21.6192 21.504 30.6176 35.9552 10.3424-30.5024 16.6784-65.6384 16.6784-98.176 0-56.8448-19.7504-112.1536-49.5872-148.7744-21.952 42.0864-58.7136 71.9616-94.1568 80.1792a38.4 38.4 0 0 1-19.52-74.24l2.176-0.5888c5.824-1.344 18.0224-8.832 28.3776-19.7632 13.9776-14.7456 23.2448-33.4976 25.856-55.9616l-0.4608 3.2512 0.064-1.6384 0.128-1.6512c0.4736-4.4032 0.7168-8.8576 0.7168-13.3504 0-67.6096-53.6832-122.1632-119.5904-122.1632z" fill="#FF5308" p-id="58040"/></svg>