<svg xmlns="http://www.w3.org/2000/svg" xmlns:xlink="http://www.w3.org/1999/xlink" t="1766648159453" class="icon" viewBox="0 0 1024 1024" version="1.1" p-id="25464" width="200" height="200"><path d="M837.146032 727.95859a359.118415 359.118415 0 0 0-112.926953 269.536325 26.428628 26.428628 0 0 1-7.798611 18.757445 26.759942 26.759942 0 0 1-18.859388 7.645697H403.04881a26.759942 26.759942 0 0 1-18.859388-7.645697 26.428628 26.428628 0 0 1-7.798611-18.757445v-126.969551H222.406461A92.410998 92.410998 0 0 1 129.715121 778.522136v-115.959746l-46.970069-16.336307c-20.566926-13.227057-37.081633-37.642318-26.148285-55.303879L129.715121 471.343493a283.782808 283.782808 0 0 1 0.356799-32.876499 420.513367 420.513367 0 1 1 707.074112 289.491596zM291.166768 164.674564A370.153705 370.153705 0 0 0 183.235004 448.329944v30.58279c0 9.047409 1.733025 5.097132-50.232233 88.664606a27.549997 27.549997 0 0 0 23.548749 42.025851 26.785427 26.785427 0 0 1 18.859387 7.645698 26.403142 26.403142 0 0 1 7.798611 18.757445v142.464831A39.095 39.095 0 0 0 222.406461 817.566165h180.667834a26.581542 26.581542 0 0 1 26.657999 26.505085v126.91858h241.604044a411.032702 411.032702 0 0 1 129.416174-281.794927A365.107545 365.107545 0 0 0 917.425857 422.538457c0-324.814719-395.66485-486.776079-626.259089-257.863893z m537.135741 396.301991c-32.952957 74.953322-155.895774 73.245783-196.698313-45.058645-1.75851-5.097132-4.256105-12.38603-6.040101-15.954022-9.557122-0.662627-97.457158 15.011053-121.184307-47.964009a102.14652 102.14652 0 0 1-4.485476-41.796481 49.212807 49.212807 0 0 0-2.395652-23.064521c-19.751385-8.537696-110.684215 44.141161-178.781895-54.692223a111.295871 111.295871 0 0 1 27.014798-158.240454 321.246727 321.246727 0 0 1 456.499117 84.102673 316.735765 316.735765 0 0 1 26.071829 302.667682z m-70.62076-273.715974a267.599415 267.599415 0 0 0-380.475397-70.187503 59.356099 59.356099 0 0 0-14.399397 85.427927c52.627885 76.456976 108.747305 9.964893 160.712563 38.228488a64.81003 64.81003 0 0 1 30.073077 60.069697 125.083612 125.083612 0 0 0 0.815541 32.545186c5.097132 13.252542 31.34736 16.718592 53.77474 14.348426 50.614518-5.351988 62.134036 16.744078 73.908409 50.971317 13.685799 39.68117 37.030662 59.789355 69.397449 59.789355a30.58279 30.58279 0 0 0 28.034224-18.757444 264.184337 264.184337 0 0 0-21.841209-252.435449z" fill="#3DCD98" p-id="25465"/></svg>