<svg xmlns="http://www.w3.org/2000/svg" xmlns:xlink="http://www.w3.org/1999/xlink" t="1766662263209" class="icon" viewBox="0 0 1024 1024" version="1.1" p-id="68402" width="200" height="200"><path d="M308.882286 512l11.702857-104.96a67.072 67.072 0 0 1-33.974857-96.731429L210.834286 234.532571a67.035429 67.035429 0 1 1 23.698285-23.698285l75.776 75.776c9.984-5.888 21.650286-9.289143 34.084572-9.289143 17.883429 0 34.121143 7.021714 46.153143 18.432l158.061714-98.779429a67.035429 67.035429 0 1 1 17.773714 28.416l-158.061714 98.779429a67.072 67.072 0 0 1-54.491429 86.601143L342.235429 515.657143a134.144 134.144 0 0 1 102.692571 126.976l138.24 13.824a67.072 67.072 0 0 1 77.019429-42.422857l76.032-152.064a67.035429 67.035429 0 1 1 29.988571 14.994285l-76.068571 152.064a66.889143 66.889143 0 0 1 16.603428 79.250286l101.376 84.48a67.035429 67.035429 0 1 1-21.467428 25.746286l-101.376-84.48a67.072 67.072 0 0 1-105.435429-44.251429l-138.203429-13.787428a134.144 134.144 0 0 1-187.392 91.648l-26.075428 36.498285a67.035429 67.035429 0 1 1-27.282286-19.492571l24.941714-34.925714a134.107429 134.107429 0 0 1 83.090286-237.714286z" fill="#899FD4" p-id="68403"/></svg>