<svg xmlns="http://www.w3.org/2000/svg" xmlns:xlink="http://www.w3.org/1999/xlink" t="1766469534521" class="icon" viewBox="0 0 1024 1024" version="1.1" p-id="10410" width="200" height="200"><path d="M685.568 78.848c-143.36 0-273.92 43.52-273.92 105.984v186.88h-62.464C206.336 365.056 81.92 408.576 81.92 464.896v392.192c0 55.808 124.416 93.184 267.776 93.184 149.504 0 267.776-37.376 267.776-87.04v-37.376h62.464c149.504 0 267.776-37.376 267.776-87.04V184.832C947.2 138.24 869.888 78.848 685.568 78.848zM567.296 657.92c-12.288 25.088-87.04 62.464-211.456 62.464s-205.312-37.376-211.456-62.464v-99.84c49.664 31.232 130.56 43.52 211.456 43.52 80.896 0 161.792-12.288 211.456-43.52v99.84z m-217.6-236.544c124.416 0 199.168 37.376 211.456 49.664v18.432c-12.288 25.088-87.04 62.464-211.456 62.464S144.384 514.56 138.24 489.472V471.04c12.288-18.944 87.04-49.664 211.456-49.664z m0 473.088c-118.272 0-193.024-25.088-211.456-43.52V726.528c49.664 31.232 130.56 43.52 211.456 43.52s161.792-12.288 211.456-43.52v124.416c-12.288 18.432-93.184 43.52-211.456 43.52z m544.256-168.448c-18.432 18.432-89.6 43.52-207.872 43.52h-62.464V645.12c18.432 0 43.52 6.144 62.464 6.144 80.896 0 158.208-12.288 207.872-43.52v118.272z m0-199.168c-12.288 25.088-83.456 62.464-207.872 62.464-25.088 0-43.52 0-62.464-6.144V477.184c18.432 0 43.52 6.144 62.464 6.144 80.896 0 158.208-12.288 207.872-43.52v87.04zM685.568 427.52c-37.376 0-68.608 0-93.184-6.144-25.088-18.432-62.464-31.232-112.128-43.52l-12.288-12.288v-87.04c49.664 31.232 130.56 43.52 211.456 43.52 80.896 0 161.792-12.288 211.456-43.52v87.04c0.512-0.512-30.72 61.952-205.312 61.952z m211.968-224.256c-12.288 25.088-87.04 62.464-211.456 62.464-124.416 0-205.312-37.376-211.456-62.464v-18.432c12.288-18.432 87.04-49.664 211.456-49.664 124.416 0 199.168 37.376 211.456 49.664v18.432z" p-id="10411"/></svg>