<svg xmlns="http://www.w3.org/2000/svg" xmlns:xlink="http://www.w3.org/1999/xlink" t="1766560915146" class="icon" viewBox="0 0 1024 1024" version="1.1" p-id="14986" width="200" height="200"><path d="M928.5 303.6L562.4 146.8a127.9 127.9 0 0 0-100.8 0L95.5 303.6a52.7 52.7 0 0 0 0 96.7v231.3a32 32 0 0 0 64 0V427.9l64 27.5V760c0 84 144.9 127.9 288 127.9S800 843.6 800 760V455.4L928.5 400a52.7 52.7 0 0 0 0-96.7zM736 760c0 18.6-78.5 64-224 64S288 778.2 288 760V482.8l173.6 74.4a128.5 128.5 0 0 0 100.8 0l173.6-74.4V760zM537.2 498.3a63.9 63.9 0 0 1-50 0L152.3 355a34.2 34.2 0 0 0-4.3-4.2l338.8-145.2a63.9 63.9 0 0 1 50 0l342 146.4z" fill="#333333" p-id="14987"/><path d="M128 695.6a32 32 0 0 0-32 32V760a32 32 0 0 0 64 0v-32a32 32 0 0 0-32-32.4z" fill="#333333" p-id="14988"/></svg>