<svg xmlns="http://www.w3.org/2000/svg" xmlns:xlink="http://www.w3.org/1999/xlink" t="1766662236025" class="icon" viewBox="0 0 1024 1024" version="1.1" p-id="66303" width="200" height="200"><path d="M933.145626 204.866173L667.893685 4.763832c-9.307086-6.980314-25.594486-6.980314-32.5748 4.653543-6.980314 9.307086-6.980314 25.594486 4.653543 32.574799L674.873999 69.913431l-65.1496 83.763771-104.704713-79.110228c-9.307086-6.980314-25.594486-6.980314-32.5748 4.653543-6.980314 9.307086-6.980314 25.594486 4.653543 32.5748l62.822828 46.535428L128.082717 691.161399c-23.267714 30.248028-18.614171 74.456685 13.960628 97.724399l62.822828 46.535429-116.33857 151.240141c-6.980314 9.307086-6.980314 25.594486 4.653543 32.5748 9.307086 6.980314 25.594486 6.980314 32.574799-4.653543l116.338571-151.240142 62.822828 46.535429c11.633857 9.307086 27.921257 13.960628 44.208657 13.960628h9.307086c18.614171-2.326771 34.901571-11.633857 46.535428-27.921257L814.480284 365.413401l62.822828 46.535428c9.307086 6.980314 25.594486 6.980314 32.5748-4.653543 6.980314-9.307086 6.980314-25.594486-4.653543-32.574799l-104.704714-79.110228 65.1496-83.763771 37.228343 27.921257c9.307086 6.980314 25.594486 6.980314 32.574799-4.653543 9.307086-6.980314 9.307086-23.267714-2.326771-30.248029zM365.413401 870.322798c-4.653543 4.653543-9.307086 6.980314-16.2874 9.307085-6.980314 0-11.633857 0-18.614171-4.653542l-160.547228-120.992114c-9.307086-6.980314-11.633857-23.267714-4.653543-32.5748l237.330685-307.133826 200.102341 148.91337-34.901571 44.208657-74.456685-55.842514c-9.307086-6.980314-25.594486-6.980314-32.5748 4.653543-6.980314 9.307086-6.980314 25.594486 4.653543 32.5748l74.456685 55.842514-53.515743 69.803142-104.704713-79.110228c-9.307086-6.980314-25.594486-6.980314-32.5748 4.653543s-6.980314 25.594486 4.653543 32.5748l104.704713 79.110228-93.070856 118.665342z m265.251941-344.36217l-200.102341-148.91337L579.476371 186.252002l2.326771 4.653543 11.633857 9.307086 183.814942 139.606284-146.586599 186.141713z m134.952742-258.271626l-116.338571-88.417314 65.1496-83.763771 116.338571 88.417314-65.1496 83.763771z" fill="#666666" p-id="66304"/></svg>