<svg xmlns="http://www.w3.org/2000/svg" xmlns:xlink="http://www.w3.org/1999/xlink" t="1766564756999" class="icon" viewBox="0 0 1024 1024" version="1.1" p-id="20399" width="200" height="200"><path d="M1023.886241 1023.886241h-210.851969v-120.641226h90.267622v-120.527468h120.584347v241.168694z m-752.685219 0H0.056879v-241.168694h120.584347v120.527468h150.559796v120.641226zM1023.886241 240.770538h-120.584347V120.584347h-90.267622V0.056879h210.851969V240.770538z m-903.245015 0H0.056879V0.056879h271.144143v120.527468H120.641226V240.770538zM660.597456 513.393546a152.436816 152.436816 0 0 0-148.512137-157.385325 153.06249 153.06249 0 0 0-147.886463 162.106315 148.341499 148.341499 0 1 0 296.3986-4.72099m-518.228295-0.284398c57.846359-50.679553 105.738821-98.685775 159.262345-138.615119a329.900572 329.900572 0 0 1 420.111315-3.128368 2069.784814 2069.784814 0 0 1 160.058657 140.662779c-120.811865 121.437538-236.7321 237.75593-419.030606 210.795089a365.108926 365.108926 0 0 1-147.886464-59.780258 1919.907571 1919.907571 0 0 1-172.515247-149.934123" p-id="20400"/><path d="M517.488863 416.982947c-10.408932 64.44437 19.338999 95.045492 77.811031 80.996279a79.289896 79.289896 0 0 1-83.157695 85.717269 82.588902 82.588902 0 0 1-83.669611-88.845637 79.631173 79.631173 0 0 1 88.959396-77.92479" p-id="20401"/></svg>