<svg xmlns="http://www.w3.org/2000/svg" xmlns:xlink="http://www.w3.org/1999/xlink" t="1766471998473" class="icon" viewBox="0 0 1024 1024" version="1.1" p-id="12260" width="200" height="200"><path d="M864 192a64 64 0 0 1 64 64v512a64 64 0 0 1-64 64H416l-175.061333 129.408a32 32 0 0 1-48.938667-27.136V832h-32a64 64 0 0 1-64-64V256a64 64 0 0 1 64-64z m0 64H160v512H256v102.698667l121.941333-90.154667 16.981334-12.544H864V256z m-347.648 370.602667c11.52 0 21.461333 3.541333 29.354667 10.752 7.338667 7.168 11.52 16.384 11.52 27.648a37.12 37.12 0 0 1-12.074667 28.245333 40.832 40.832 0 0 1-28.8 10.752 41.258667 41.258667 0 0 1-28.842667-11.306667 35.584 35.584 0 0 1-11.52-27.690666c0-11.264 3.712-20.48 11.52-27.648a40.832 40.832 0 0 1 28.842667-10.752z m9.386667-295.893334c34.133333 0 61.866667 8.704 82.773333 27.178667 20.992 17.92 31.488 42.581333 31.488 73.856 0 25.6-6.826667 46.677333-19.370667 63.061333-4.693333 5.12-19.925333 18.944-45.056 40.490667-9.472 7.68-16.256 16.426667-20.992 25.6-5.248 10.282667-7.808 21.034667-7.808 33.365333v7.168h-60.288v-7.168c0-19.498667 3.157333-36.394667 10.496-50.261333 6.826667-13.824 27.221333-35.370667 61.269334-65.109333l6.314666-7.168c9.386667-11.264 14.122667-23.594667 14.122667-36.394667 0-16.938667-5.248-30.293333-14.634667-40.021333-9.984-9.728-24.106667-14.336-41.941333-14.336-23.04 0-39.253333 6.656-49.237333 20.992-8.96 11.818667-13.141333 28.714667-13.141334 50.261333h-59.733333c0-37.930667 11.050667-67.669333 34.090667-89.216 22.528-21.546667 52.906667-32.298667 91.690666-32.298667z" fill="#7E7F80" p-id="12261"/></svg>