<svg xmlns="http://www.w3.org/2000/svg" xmlns:xlink="http://www.w3.org/1999/xlink" t="1766565021229" class="icon" viewBox="0 0 1024 1024" version="1.1" p-id="4382" width="200" height="200"><path d="M864.426 1023.936h-636.12c-114.297 0-130.872-105.53-133.112-128.44l-0.384-0.576h0.32a64.721 64.721 0 0 1-0.32-4.032v-12.35c-60.604-36.095-64.06-115.322-64.06-115.322V126.328C30.814 3.968 158.934 0 158.934 0H802.35c64.636 0 96.442 38.27 112.12 72.635 71.932 28.479 78.78 117.497 78.78 117.497v700.756c0 0.064-18.687 133.048-128.824 133.048zM479.298 256.688v191.476H222.994v63.804h256.304v191.476l256.304-223.41-256.304-223.346z m448.484-127.672h-64.06V894.92H158.935v63.868h768.847V129.016z m0 0" p-id="4383"/></svg>