<svg xmlns="http://www.w3.org/2000/svg" xmlns:xlink="http://www.w3.org/1999/xlink" t="1766649730932" class="icon" viewBox="0 0 1024 1024" version="1.1" p-id="35882" width="200" height="200"><path d="M511.229 659.88c17.162 0 31.077 13.92 31.077 31.077 0 17.165-13.916 31.076-31.077 31.076-17.162 0-31.075-13.911-31.075-31.076-0.008-17.158 13.912-31.077 31.075-31.077zM511.229 959.489s-78.215-29.484-78.215-71.742c0-29.902 29.555-97.402 52.336-144.982 7.797 3.903 16.564 6.154 25.879 6.154 9.313 0 18.079-2.25 25.875-6.154 22.78 47.58 52.337 115.08 52.337 144.982 0 42.258-78.212 71.742-78.212 71.742zM870.899 959.129c-20.074 0-36.396-16.336-36.396-36.408 0-101.596-46.371-195.294-127.208-257.07-15.955-12.194-19.009-35.095-6.82-51.048 12.145-15.929 35.04-19.01 51.005-6.83l0.007 0.018c99.027 75.677 155.82 190.46 155.82 314.93 0 20.074-16.328 36.408-36.408 36.408z" fill="" p-id="35883"/><path d="M511.229 64.17c-147.571 0-267.626 120.064-267.626 267.637 0 90.13 46.393 174.209 120.8 223.317C215.939 614.7 115.148 760.861 115.148 922.722c0 20.073 16.332 36.408 36.406 36.408s36.4-16.335 36.4-36.408c0-178.259 145.025-323.292 323.276-323.286 147.574 0 267.632-120.055 267.632-267.629S658.803 64.171 511.23 64.171z m0 462.453c-107.42 0-194.815-87.398-194.815-194.822 0-107.42 87.395-194.818 194.815-194.818 107.428 0 194.824 87.398 194.824 194.818 0 107.424-87.396 194.822-194.824 194.822z" fill="" p-id="35884"/></svg>