<svg xmlns="http://www.w3.org/2000/svg" xmlns:xlink="http://www.w3.org/1999/xlink" t="1766478728296" class="icon" viewBox="0 0 1024 1024" version="1.1" p-id="1618" width="200" height="200"><path d="M512 32A480 480 0 1 0 992 512 480.512 480.512 0 0 0 512 32z m0 896A416 416 0 1 1 928 512 416.512 416.512 0 0 1 512 928z" p-id="1619"/><path d="M768 416a32 32 0 0 0-32 32v128a32 32 0 0 0 64 0V448a32 32 0 0 0-32-32zM640 352a32 32 0 0 0-32 32v256a32 32 0 0 0 64 0V384a32 32 0 0 0-32-32zM256 416a32 32 0 0 0-32 32v128a32 32 0 0 0 64 0V448a32 32 0 0 0-32-32zM384 352a32 32 0 0 0-32 32v256a32 32 0 0 0 64 0V384a32 32 0 0 0-32-32zM512 288a32 32 0 0 0-32 32v384a32 32 0 0 0 64 0V320a32 32 0 0 0-32-32z" p-id="1620"/></svg>